<?xml version="1.0" standalone="no"?>
<!DOCTYPE svg PUBLIC "-//W3C//DTD SVG 20010904//EN"
 "http://www.w3.org/TR/2001/REC-SVG-20010904/DTD/svg10.dtd">
<svg version="1.0" xmlns="http://www.w3.org/2000/svg"
 width="167.000000pt" height="183.000000pt" viewBox="0 0 167.000000 183.000000"
 preserveAspectRatio="xMidYMid meet">
<metadata>
Created by potrace 1.16, written by Peter Selinger 2001-2019
</metadata>
<g transform="translate(0.000000,183.000000) scale(0.100000,-0.100000)"
fill="#000000" stroke="none">
<path d="M695 1694 c-104 -22 -205 -66 -278 -121 -52 -39 -142 -147 -167 -200
-29 -63 -26 -116 14 -199 18 -39 45 -80 59 -91 14 -11 60 -27 103 -37 76 -16
79 -18 149 -90 67 -71 73 -74 145 -91 142 -33 199 -76 249 -187 27 -59 35 -68
63 -73 34 -6 116 8 150 26 24 13 48 67 48 108 0 35 16 46 78 54 56 7 75 25
101 95 12 31 36 74 52 95 45 56 70 119 76 196 5 59 2 76 -20 124 -32 70 -88
146 -163 220 -95 95 -185 139 -334 163 -78 13 -278 17 -325 8z m390 -80 c157
-58 154 -56 255 -169 63 -71 140 -166 140 -173 0 -4 -5 -45 -10 -91 -10 -79
-14 -86 -58 -138 -36 -41 -49 -67 -57 -106 l-10 -52 -90 -31 -90 -31 0 -43 c0
-42 -1 -43 -60 -76 -33 -19 -65 -34 -71 -34 -10 0 -84 147 -84 167 0 11 -178
78 -262 99 -73 18 -76 20 -122 95 -30 50 -33 52 -121 80 l-90 28 -38 76 c-20
41 -37 80 -37 86 0 19 271 299 295 305 29 7 325 61 345 63 8 0 83 -24 165 -55z"/>
<path d="M757 1620 c-81 -15 -149 -29 -151 -31 -6 -6 164 -149 177 -149 11 0
133 199 125 204 -1 1 -69 -10 -151 -24z"/>
<path d="M950 1635 c0 -22 67 -115 86 -119 20 -5 162 18 171 28 2 2 -47 22
-109 44 -62 22 -121 43 -130 47 -10 4 -18 4 -18 0z"/>
<path d="M867 1524 c-32 -53 -52 -94 -45 -92 7 3 46 16 87 29 40 13 76 30 79
38 5 12 -47 121 -58 121 -3 0 -31 -43 -63 -96z"/>
<path d="M436 1450 c-90 -91 -122 -130 -109 -130 11 0 71 9 134 20 150 27 153
31 127 149 -10 47 -20 87 -22 88 -1 2 -60 -56 -130 -127z"/>
<path d="M1248 1504 c-3 -5 -8 -41 -12 -81 -9 -96 2 -108 115 -123 46 -5 84
-8 87 -6 2 3 -31 44 -73 93 -107 121 -112 126 -117 117z"/>
<path d="M905 1441 c-64 -22 -80 -32 -79 -48 0 -20 83 -153 95 -153 7 0 79
205 79 223 0 10 -5 9 -95 -22z"/>
<path d="M771 1301 c-13 -49 -20 -95 -16 -101 10 -16 145 1 145 18 0 4 -24 44
-53 90 l-53 82 -23 -89z"/>
<path d="M450 1319 c-58 -10 -115 -21 -128 -24 l-22 -5 30 -60 30 -60 103 77
c56 42 106 80 112 85 12 11 0 9 -125 -13z"/>
<path d="M487 1239 c-59 -44 -107 -82 -107 -84 0 -2 36 -15 79 -30 l79 -26 72
32 c44 20 75 41 80 53 12 31 -47 136 -76 136 -11 0 -69 -36 -127 -81z"/>
<path d="M1237 1276 c-11 -8 -20 -33 -24 -65 -8 -66 1 -66 123 1 104 59 104
61 -11 72 -53 5 -74 3 -88 -8z"/>
<path d="M860 1185 c-8 -2 -31 -6 -50 -9 -54 -9 -63 -32 -48 -126 7 -44 15
-80 18 -80 4 1 108 186 118 211 4 9 -8 10 -38 4z"/>
<path d="M950 1179 c0 -34 46 -139 60 -139 8 1 46 18 84 39 78 45 79 44 -41
80 -40 12 -79 24 -88 27 -9 4 -15 1 -15 -7z"/>
<path d="M861 1070 c-34 -61 -61 -113 -61 -115 0 -2 33 8 73 22 95 34 103 50
76 139 -11 35 -21 64 -23 64 -2 0 -31 -50 -65 -110z"/>
<path d="M1092 1058 c-41 -23 -70 -44 -65 -48 9 -9 266 -91 270 -86 8 8 -95
160 -112 166 -14 6 -42 -4 -93 -32z"/>
<path d="M1051 951 c18 -20 47 -53 66 -74 l34 -38 82 27 82 28 -55 17 c-30 10
-97 31 -148 47 l-92 30 31 -37z"/>
<path d="M977 909 l-15 -61 36 -76 c19 -43 37 -79 38 -80 1 -2 28 11 59 30 55
32 56 34 50 68 -5 23 -28 59 -72 107 -36 40 -68 73 -73 73 -4 0 -14 -27 -23
-61z"/>
</g>
</svg>
