<?xml version="1.0" standalone="no"?>
<!DOCTYPE svg PUBLIC "-//W3C//DTD SVG 20010904//EN"
 "http://www.w3.org/TR/2001/REC-SVG-20010904/DTD/svg10.dtd">
<svg version="1.0" xmlns="http://www.w3.org/2000/svg"
 width="167.000000pt" height="183.000000pt" viewBox="0 0 167.000000 183.000000"
 preserveAspectRatio="xMidYMid meet">

<g transform="translate(0.000000,183.000000) scale(0.100000,-0.100000)"
fill="#000000" stroke="none">
<path d="M693 1800 c-276 -40 -504 -236 -559 -477 -21 -93 -14 -198 17 -280
l24 -63 -63 -125 c-34 -69 -62 -136 -62 -149 0 -29 20 -46 63 -55 32 -7 32 -8
35 -69 2 -48 7 -65 23 -76 15 -10 18 -20 13 -39 -4 -18 1 -37 15 -60 16 -26
21 -51 21 -101 0 -37 4 -76 10 -86 18 -34 74 -43 212 -36 115 6 133 5 173 -13
38 -17 49 -29 72 -78 15 -32 29 -60 30 -62 2 -2 39 6 84 17 164 44 347 142
482 257 l72 61 12 88 c13 92 45 176 91 235 53 69 152 235 173 290 71 190 1
412 -193 611 -84 86 -141 123 -249 164 -122 46 -351 67 -496 46z m362 -119
c96 -20 176 -53 240 -98 52 -37 175 -181 210 -245 54 -100 40 -251 -33 -346
-19 -25 -44 -66 -54 -91 -33 -78 -39 -88 -65 -100 -13 -6 -36 -11 -51 -11 -46
0 -72 -25 -72 -72 0 -60 -47 -104 -122 -113 -93 -12 -112 -3 -137 63 -12 31
-33 71 -47 89 -32 43 -122 88 -216 109 -77 18 -69 12 -181 131 -24 26 -45 35
-109 49 -91 20 -118 41 -156 124 -60 129 -34 222 96 349 136 134 257 180 477
180 90 1 158 -5 220 -18z"/>
<path d="M742 1635 l-183 -33 -137 -142 c-75 -79 -138 -149 -140 -156 -5 -21
68 -153 91 -166 12 -6 54 -21 95 -34 l74 -23 76 35 c41 19 78 32 81 29 3 -3
-13 -42 -35 -87 l-40 -81 -33 52 c-45 69 -52 58 -9 -14 31 -53 36 -57 99 -75
36 -11 70 -20 75 -20 4 0 49 -16 99 -35 l90 -35 34 -78 c49 -110 48 -110 115
-72 66 38 71 44 67 90 l-2 36 81 23 c45 13 87 30 95 37 7 7 16 34 20 61 5 37
17 58 54 99 51 56 61 88 61 195 0 48 -5 58 -75 135 -9 10 -57 66 -126 147 -17
20 -65 43 -169 83 -80 30 -152 57 -160 58 -8 2 -97 -11 -198 -29z m129 -67
c-70 -122 -74 -128 -91 -128 -8 0 -28 12 -45 28 -16 15 -54 47 -82 70 -29 24
-53 48 -53 53 0 5 12 9 28 10 15 0 81 11 147 24 66 12 125 23 132 24 7 0 -9
-36 -36 -81z m272 -41 c-107 -25 -128 -18 -170 59 l-33 61 141 -51 140 -51
-78 -18z m-203 93 c0 -6 12 -29 26 -51 41 -65 32 -79 -65 -112 -46 -15 -85
-26 -87 -25 -1 2 23 47 54 100 53 90 72 114 72 88z m-337 -185 c11 -58 -12
-72 -162 -100 -74 -13 -136 -23 -137 -22 -1 1 57 63 129 138 l132 135 16 -60
c8 -34 18 -75 22 -91z m121 -35 c-71 -24 -97 -9 -113 67 -7 32 -15 69 -18 83
-5 20 11 10 86 -55 l93 -79 -48 -16z m469 106 c-18 -32 -116 -136 -128 -136
-15 0 -29 77 -19 103 3 10 18 20 33 23 14 3 40 9 56 13 48 14 67 13 58 -3z
m74 0 c4 -8 22 -29 38 -48 17 -18 57 -64 90 -102 l59 -69 -59 7 c-126 14 -145
18 -145 31 0 7 -5 15 -11 17 -8 3 -10 29 -4 91 7 84 15 103 32 73z m-41 -23
c-3 -16 -8 -51 -11 -80 -4 -29 -13 -57 -21 -64 -14 -11 -98 -8 -111 4 -6 7
127 165 140 166 5 1 6 -11 3 -26z m-226 -19 c0 -17 -73 -234 -79 -234 -11 0
-114 170 -107 178 8 8 153 59 174 61 6 0 12 -2 12 -5z m30 -55 c8 -30 8 -45 1
-52 -6 -6 -11 -20 -11 -32 0 -17 -57 -81 -65 -73 -3 3 58 197 62 198 1 0 7
-19 13 -41z m-278 -109 c-14 -49 -28 -90 -31 -90 -3 0 -19 24 -34 53 -44 80
-21 122 69 126 l21 1 -25 -90z m97 10 c28 -45 51 -85 51 -89 0 -12 -18 -18
-83 -26 -47 -6 -58 -5 -63 9 -5 13 34 186 42 186 1 0 25 -36 53 -80z m-269 26
c0 -3 -187 -147 -207 -160 -8 -4 -23 14 -43 54 -17 33 -29 61 -28 61 2 1 57
12 123 24 121 23 155 28 155 21z m88 -70 c44 -81 37 -98 -54 -136 l-74 -31
-66 21 c-114 35 -120 21 76 172 19 15 47 27 62 28 22 0 31 -9 56 -54z m493 44
c11 0 19 -7 19 -15 0 -8 5 -15 10 -15 11 0 11 -47 1 -95 l-6 -29 -48 66 c-66
93 -69 103 -27 95 18 -4 41 -7 51 -7z m-48 -79 c26 -38 47 -74 47 -79 0 -5
-31 1 -69 13 -38 13 -83 26 -100 30 -17 4 -34 11 -37 16 -8 13 74 89 95 89 9
0 37 -31 64 -69z m306 39 c9 -5 -19 -25 -90 -63 -57 -31 -107 -53 -112 -50 -5
3 -7 28 -5 55 7 70 24 80 118 72 41 -3 81 -9 89 -14z m37 -32 c-3 -13 -6 -44
-6 -70 l0 -48 -72 1 c-40 0 -90 3 -110 7 l-38 7 88 49 c48 27 96 55 107 62 29
19 38 17 31 -8z m-556 -53 c0 -8 -110 -209 -119 -218 -4 -4 -14 33 -21 83 -11
79 -11 93 2 106 18 18 138 43 138 29z m162 -27 c54 -18 98 -35 98 -38 0 -11
-144 -88 -156 -83 -12 4 -54 113 -54 140 0 18 0 18 112 -19z m-112 -44 c30
-89 22 -104 -77 -139 -41 -14 -76 -25 -78 -23 -3 3 125 228 130 228 2 0 13
-30 25 -66z m-216 -11 c16 -80 27 -156 23 -159 -4 -4 -108 16 -116 23 -6 4 72
163 80 163 4 0 10 -12 13 -27z m695 -8 c5 -6 -69 -85 -80 -85 -4 0 -32 23 -61
51 l-53 50 94 -5 c52 -3 97 -8 100 -11z m-223 -8 c18 -22 95 -160 91 -164 -6
-6 -257 75 -270 87 -15 13 125 89 153 84 14 -3 26 -6 26 -7z m87 -52 c39 -37
47 -51 47 -80 0 -44 -9 -44 -35 -2 -62 103 -75 127 -68 127 5 0 29 -20 56 -45z
m-329 -102 c-11 -68 -14 -70 -93 -37 -39 16 -71 31 -71 34 0 10 155 57 163 50
4 -4 5 -25 1 -47z m213 6 c73 -24 129 -46 125 -49 -4 -4 -40 -17 -79 -30 l-73
-24 -52 58 c-70 79 -87 101 -67 94 8 -3 74 -25 146 -49z m-98 -44 c58 -67 82
-119 66 -145 -5 -9 -97 -60 -108 -60 -2 0 -20 35 -40 78 -23 51 -34 87 -30
103 19 85 25 100 38 97 8 -2 41 -34 74 -73z"/>
</g>
</svg>
